<svg xmlns="http://www.w3.org/2000/svg" width="3035" height="889" viewBox="0 0 3035 889">
  <g id="Grupo_2312" data-name="Grupo 2312" transform="translate(-554 7227)">
    <g id="Grupo_2311" data-name="Grupo 2311" transform="translate(658 -7140)">
      <g id="Elipse_122" data-name="Elipse 122" fill="#226706" stroke="#707070" stroke-width="1">
        <circle cx="356.5" cy="356.5" r="356.5" stroke="none"/>
        <circle cx="356.5" cy="356.5" r="356" fill="none"/>
      </g>
      <path id="store-alt-solid" d="M252.715,301.468H101.092V175.856H50.552V376.835a25.17,25.17,0,0,0,25.27,25.122H277.985a25.17,25.17,0,0,0,25.27-25.122V175.856H252.715Zm248.44-189.831L433.793,11.148A25.45,25.45,0,0,0,412.708,0H92.722A25.206,25.206,0,0,0,71.716,11.148L4.354,111.637c-11.214,16.722.79,39.1,21.006,39.1H480.149C500.286,150.734,512.29,128.36,501.155,111.637ZM404.337,389.4a12.635,12.635,0,0,0,12.635,12.561h25.27A12.635,12.635,0,0,0,454.878,389.4V175.856H404.337Z" transform="translate(103.812 182.625)" fill="#c1c164"/>
    </g>
    <rect id="Rectángulo_3480" data-name="Rectángulo 3480" width="3035" height="889" transform="translate(554 -7227)" fill="none"/>
    <text id="te_lo_tengo" data-name="te lo tengo" transform="translate(1518 -6668)" fill="#c1c164" font-size="280" font-family="FashionFetish, Fashion Fetish"><tspan x="0" y="0">Te Lo Tengo</tspan></text>
  </g>
</svg>
